<svg width="20" height="16" viewBox="0 0 20 16" fill="none" xmlns="http://www.w3.org/2000/svg">
<mask id="path-1-outside-1_263_114" maskUnits="userSpaceOnUse" x="0" y="0" width="20" height="16" fill="black">
<rect fill="white" width="20" height="16"/>
<path d="M5.95739 1.90909V15H4.37216V3.57102H4.29545L1.09943 5.69318V4.08239L4.37216 1.90909H5.95739ZM10.8729 5.18182L13.2251 9.19602L15.5774 5.18182H17.3161L14.1456 10.0909L17.3161 15H15.5774L13.2251 11.1903L10.8729 15H9.13423L12.2536 10.0909L9.13423 5.18182H10.8729Z"/>
</mask>
<path d="M5.95739 1.90909V15H4.37216V3.57102H4.29545L1.09943 5.69318V4.08239L4.37216 1.90909H5.95739ZM10.8729 5.18182L13.2251 9.19602L15.5774 5.18182H17.3161L14.1456 10.0909L17.3161 15H15.5774L13.2251 11.1903L10.8729 15H9.13423L12.2536 10.0909L9.13423 5.18182H10.8729Z" fill="black"/>
<path d="M5.95739 1.90909H6.95739V0.909091H5.95739V1.90909ZM5.95739 15V16H6.95739V15H5.95739ZM4.37216 15H3.37216V16H4.37216V15ZM4.37216 3.57102H5.37216V2.57102H4.37216V3.57102ZM4.29545 3.57102V2.57102H3.99369L3.74229 2.73795L4.29545 3.57102ZM1.09943 5.69318H0.0994318V7.55755L1.65259 6.52626L1.09943 5.69318ZM1.09943 4.08239L0.546234 3.24934L0.0994318 3.54604V4.08239H1.09943ZM4.37216 1.90909V0.909091H4.07037L3.81896 1.07604L4.37216 1.90909ZM4.95739 1.90909V15H6.95739V1.90909H4.95739ZM5.95739 14H4.37216V16H5.95739V14ZM5.37216 15V3.57102H3.37216V15H5.37216ZM4.37216 2.57102H4.29545V4.57102H4.37216V2.57102ZM3.74229 2.73795L0.546271 4.86011L1.65259 6.52626L4.84862 4.4041L3.74229 2.73795ZM2.09943 5.69318V4.08239H0.0994318V5.69318H2.09943ZM1.65263 4.91544L4.92536 2.74214L3.81896 1.07604L0.546234 3.24934L1.65263 4.91544ZM4.37216 2.90909H5.95739V0.909091H4.37216V2.90909ZM10.8729 5.18182L11.7356 4.67624L11.4459 4.18182H10.8729V5.18182ZM13.2251 9.19602L12.3624 9.7016L13.2251 11.174L14.0879 9.7016L13.2251 9.19602ZM15.5774 5.18182V4.18182H15.0044L14.7146 4.67624L15.5774 5.18182ZM17.3161 5.18182L18.1561 5.72434L19.1523 4.18182H17.3161V5.18182ZM14.1456 10.0909L13.3056 9.54838L12.9552 10.0909L13.3056 10.6334L14.1456 10.0909ZM17.3161 15V16H19.1523L18.1561 14.4575L17.3161 15ZM15.5774 15L14.7265 15.5254L15.0196 16H15.5774V15ZM13.2251 11.1903L14.076 10.665L13.2251 9.28693L12.3743 10.665L13.2251 11.1903ZM10.8729 15V16H11.4307L11.7237 15.5254L10.8729 15ZM9.13423 15L8.29021 14.4637L7.31401 16H9.13423V15ZM12.2536 10.0909L13.0976 10.6272L13.4384 10.0909L13.0976 9.5546L12.2536 10.0909ZM9.13423 5.18182V4.18182H7.31401L8.29021 5.71812L9.13423 5.18182ZM10.0101 5.6874L12.3624 9.7016L14.0879 8.69044L11.7356 4.67624L10.0101 5.6874ZM14.0879 9.7016L16.4402 5.6874L14.7146 4.67624L12.3624 8.69044L14.0879 9.7016ZM15.5774 6.18182H17.3161V4.18182H15.5774V6.18182ZM16.476 4.63929L13.3056 9.54838L14.9856 10.6334L18.1561 5.72434L16.476 4.63929ZM13.3056 10.6334L16.476 15.5425L18.1561 14.4575L14.9856 9.54838L13.3056 10.6334ZM17.3161 14H15.5774V16H17.3161V14ZM16.4283 14.4746L14.076 10.665L12.3743 11.7157L14.7265 15.5254L16.4283 14.4746ZM12.3743 10.665L10.022 14.4746L11.7237 15.5254L14.076 11.7157L12.3743 10.665ZM10.8729 14H9.13423V16H10.8729V14ZM9.97826 15.5363L13.0976 10.6272L11.4095 9.5546L8.29021 14.4637L9.97826 15.5363ZM13.0976 9.5546L9.97826 4.64551L8.29021 5.71812L11.4095 10.6272L13.0976 9.5546ZM9.13423 6.18182H10.8729V4.18182H9.13423V6.18182Z" fill="black" mask="url(#path-1-outside-1_263_114)"/>
</svg>
