<svg width="24" height="24" viewBox="0 0 24 24" fill="none" xmlns="http://www.w3.org/2000/svg">
<path d="M18 14L22 18L18 22" stroke="black" stroke-width="2" stroke-linecap="round" stroke-linejoin="round"/>
<path d="M18 2L22 6L18 10" stroke="black" stroke-width="2" stroke-linecap="round" stroke-linejoin="round"/>
<path d="M2 18H3.973C4.61949 18.0044 5.25742 17.8521 5.83215 17.556C6.40687 17.2599 6.90127 16.829 7.273 16.3L12.727 7.7C13.0987 7.17105 13.5931 6.74008 14.1679 6.44401C14.7426 6.14794 15.3805 5.99559 16.027 6H22" stroke="black" stroke-width="2" stroke-linecap="round" stroke-linejoin="round"/>
<path d="M2 6H3.972C4.71746 5.99481 5.44954 6.19804 6.08564 6.58677C6.72174 6.9755 7.23655 7.53426 7.572 8.2" stroke="black" stroke-width="2" stroke-linecap="round" stroke-linejoin="round"/>
<path d="M22 18H15.959C15.3036 17.9933 14.6599 17.8257 14.0844 17.5118C13.509 17.1979 13.0195 16.7474 12.659 16.2L12.3 15.75" stroke="black" stroke-width="2" stroke-linecap="round" stroke-linejoin="round"/>
</svg>
